<svg width="48" height="48" viewBox="0 0 48 48" fill="none" xmlns="http://www.w3.org/2000/svg">
<path d="M39.6 31.95V43.5H8.25V31.95V31.1472L7.58205 30.7019C5.74453 29.4769 4.5 27.3927 4.5 24.75C4.5 21.0276 7.92567 17.85 11.85 17.85H22.05H23.55V16.35V15H24.3V16.35V17.85H25.8H35.7C38.4497 17.85 40.9213 19.0258 42.2406 21.0649L42.2496 21.0787L42.2588 21.0923C44.5734 24.5033 43.279 28.6945 40.2679 30.7019L39.6 31.1472V31.95ZM31.9393 29.4107L31.9747 29.446L32.0122 29.4789C33.5091 30.7886 35.65 31.5962 38.0138 31.0052C40.3311 30.4259 42.2429 28.46 42.2987 25.9146C42.8106 22.1016 40.0794 18.75 36.15 18.75H11.4C7.48312 18.75 4.72828 21.9433 5.10625 25.7872C5.31327 28.2046 7.10064 30.3963 9.5362 31.0052L9.54942 31.0085L9.56271 31.0116C12.0144 31.5774 14.1933 30.828 15.6107 29.4107L17.475 27.5463L19.3393 29.4107L19.3875 29.4588L19.4397 29.5023C20.5225 30.4047 22.0507 31.2 23.85 31.2C25.6322 31.2 27.2047 30.4167 28.2107 29.4107L30.075 27.5463L31.9393 29.4107ZM25.35 8.7C25.35 9.37157 24.6716 10.05 24 10.05C23.3806 10.05 22.6338 9.4226 22.5049 8.64358C22.5121 8.59932 22.5293 8.53473 22.5688 8.43222C22.5964 8.36032 22.6253 8.29318 22.6661 8.19824C22.6752 8.17721 22.6848 8.15483 22.6951 8.13072C22.7281 8.05387 22.7689 7.95762 22.8098 7.85061L23.9608 5.9548L25.0769 7.90784C25.2266 8.20786 25.2814 8.32507 25.3145 8.42434C25.3334 8.48098 25.35 8.54413 25.35 8.7Z" stroke="black" stroke-width="3"/>
</svg>
