<svg width="48" height="48" viewBox="0 0 48 48" fill="none" xmlns="http://www.w3.org/2000/svg">
<path d="M24 11.55C25.5 11.55 26.85 10.2 26.85 8.7C26.85 8.1 26.7 7.8 26.4 7.2L24 3L21.45 7.2C21.3 7.65 21 8.1 21 8.7C21.15 10.2 22.5 11.55 24 11.55ZM35.7 16.35H25.8V14.55C25.95 13.95 25.5 13.5 24.9 13.5H23.1C22.5 13.5 22.05 13.95 22.05 14.55V16.35H11.85C7.2 16.35 3 20.1 3 24.75C3 27.9 4.5 30.45 6.75 31.95V45H41.1V31.95C44.7 29.55 46.35 24.45 43.5 20.25C41.85 17.7 38.85 16.35 35.7 16.35ZM37.65 29.55C35.85 30 34.2 29.4 33 28.35L30.6 25.95C30.3 25.65 29.85 25.65 29.55 25.95L27.15 28.35C26.4 29.1 25.2 29.7 23.85 29.7C22.5 29.7 21.3 29.1 20.4 28.35L18 25.95C17.7 25.65 17.25 25.65 16.95 25.95L14.55 28.35C13.5 29.4 11.85 30 9.9 29.55C8.1 29.1 6.75 27.45 6.6 25.65C6.3 22.65 8.4 20.25 11.4 20.25H36.15C39.15 20.25 41.25 22.8 40.8 25.8C40.8 27.6 39.45 29.1 37.65 29.55Z" fill="white"/>
</svg>
