<svg width="48" height="48" viewBox="0 0 48 48" fill="none" xmlns="http://www.w3.org/2000/svg">
<path d="M12.4 33C14.2 33 15.9417 33.2083 17.625 33.625C19.3083 34.0417 20.9667 34.6667 22.6 35.5V14.15C21.1 13.15 19.475 12.375 17.725 11.825C15.975 11.275 14.2 11 12.4 11C11.1333 11 9.89167 11.1583 8.675 11.475C7.45833 11.7917 6.23333 12.1833 5 12.65V34.35C6.03333 33.8833 7.20833 33.5417 8.525 33.325C9.84167 33.1083 11.1333 33 12.4 33ZM25.6 35.5C27.2667 34.6667 28.9 34.0417 30.5 33.625C32.1 33.2083 33.8 33 35.6 33C36.8667 33 38.175 33.1 39.525 33.3C40.875 33.5 42.0333 33.7667 43 34.1V12.65C41.8667 12.0833 40.6667 11.6667 39.4 11.4C38.1333 11.1333 36.8667 11 35.6 11C33.8 11 32.0583 11.275 30.375 11.825C28.6917 12.375 27.1 13.15 25.6 14.15V35.5ZM24.1 40C22.4 38.7333 20.55 37.7583 18.55 37.075C16.55 36.3917 14.5 36.05 12.4 36.05C11.1667 36.05 9.96667 36.2 8.8 36.5C7.63333 36.8 6.46667 37.1667 5.3 37.6C4.53333 37.9667 3.79167 37.9167 3.075 37.45C2.35833 36.9833 2 36.3167 2 35.45V12.3C2 11.8 2.11667 11.3417 2.35 10.925C2.58333 10.5083 2.93333 10.1833 3.4 9.95C4.8 9.28333 6.25833 8.79167 7.775 8.475C9.29167 8.15833 10.8333 8 12.4 8C14.5 8 16.5417 8.28333 18.525 8.85C20.5083 9.41667 22.3667 10.2833 24.1 11.45C25.8 10.2833 27.625 9.41667 29.575 8.85C31.525 8.28333 33.5333 8 35.6 8C37.1667 8 38.7 8.15833 40.2 8.475C41.7 8.79167 43.15 9.28333 44.55 9.95C45.0167 10.1833 45.375 10.5083 45.625 10.925C45.875 11.3417 46 11.8 46 12.3V35.45C46 36.3833 45.625 37.0917 44.875 37.575C44.125 38.0583 43.3833 38.0667 42.65 37.6C41.5167 37.1333 40.3667 36.7583 39.2 36.475C38.0333 36.1917 36.8333 36.05 35.6 36.05C33.5 36.05 31.4833 36.4 29.55 37.1C27.6167 37.8 25.8 38.7667 24.1 40Z" fill="white"/>
<path d="M12.4 33C14.2 33 15.9417 33.2083 17.625 33.625C19.3083 34.0417 20.9667 34.6667 22.6 35.5V14.15C21.1 13.15 19.475 12.375 17.725 11.825C15.975 11.275 14.2 11 12.4 11C11.1333 11 9.89167 11.1583 8.675 11.475C7.45833 11.7917 6.23333 12.1833 5 12.65V34.35C6.03333 33.8833 7.20833 33.5417 8.525 33.325C9.84167 33.1083 11.1333 33 12.4 33Z" fill="white"/>
<path d="M25.6 35.5C27.2667 34.6667 28.9 34.0417 30.5 33.625C32.1 33.2083 33.8 33 35.6 33C36.8667 33 38.175 33.1 39.525 33.3C40.875 33.5 42.0333 33.7667 43 34.1V12.65C41.8667 12.0833 40.6667 11.6667 39.4 11.4C38.1333 11.1333 36.8667 11 35.6 11C33.8 11 32.0583 11.275 30.375 11.825C28.6917 12.375 27.1 13.15 25.6 14.15V35.5Z" fill="white"/>
</svg>
