<svg width="30" height="30" viewBox="0 0 30 30" fill="none" xmlns="http://www.w3.org/2000/svg">
<g clip-path="url(#clip0_102_16)">
<path d="M15 0C6.7157 0 0 6.7157 0 15C0 23.2843 6.7157 30 15 30C23.2843 30 30 23.2843 30 15C30 6.7157 23.2843 0 15 0ZM9.37964 25.1558H5.16276V11.5881H9.37964V25.1558V25.1558ZM7.27212 9.7335C5.92051 9.7335 4.82639 8.63785 4.82639 7.28808C4.8267 5.93954 5.92051 4.84389 7.27212 4.84389C8.62005 4.84389 9.7157 5.93954 9.7157 7.28808C9.7157 8.63816 8.61974 9.7335 7.27212 9.7335ZM25.1733 25.1558H20.9598V18.5576C20.9598 16.9841 20.9306 14.9604 18.7679 14.9604C16.5747 14.9604 16.2374 16.6742 16.2374 18.4438V25.1555H12.0242V11.5881H16.0686V13.4421H16.1254C16.6886 12.3753 18.0635 11.2508 20.1152 11.2508C24.3852 11.2508 25.1733 14.0609 25.1733 17.714V25.1558Z" fill="white"/>
</g>
<defs>
<clipPath id="clip0_102_16">
<rect width="30" height="30" fill="white"/>
</clipPath>
</defs>
</svg>
