<svg width="50" height="50" viewBox="0 0 50 50" fill="none" xmlns="http://www.w3.org/2000/svg">
<path d="M25.1004 2.00025C19.4855 2.05738 14.0731 4.11761 9.83999 7.8109C5.93739 11.2157 3.27482 15.8013 2.2422 20.8502L2 22.0358L3.10743 22.524C3.51826 22.7049 3.89145 22.9687 4.20316 23.3034C4.77833 23.9208 5.0977 24.7309 5.0977 25.5749C5.09749 26.4188 4.77819 27.2312 4.20316 27.8484C3.89154 28.1828 3.51804 28.445 3.10743 28.6257L2 29.114L2.2422 30.2995C2.84529 33.2486 4.00734 36.0555 5.66608 38.5672L6.33406 39.5771L7.46099 39.1396C7.84315 38.9911 8.25346 38.913 8.67002 38.913C9.55491 38.913 10.4018 39.2639 11.0275 39.8896C11.6531 40.5152 12.004 41.3622 12.0041 42.247C12.0041 42.6637 11.9258 43.0721 11.7775 43.4541L11.34 44.583L12.3498 45.249C14.8613 46.9075 17.6669 48.0696 20.6156 48.6729L21.8011 48.9151L22.2875 47.8077C22.4686 47.3966 22.7323 47.0235 23.0668 46.7119C23.6842 46.1369 24.4964 45.8174 25.3402 45.8174C26.1841 45.8174 26.9962 46.1368 27.6137 46.7119C27.9483 47.0236 28.2102 47.3969 28.3911 47.8077L28.8794 48.9151L30.0649 48.6729C34.3637 47.7936 38.2776 45.6739 41.4612 42.6728L41.5432 42.8759L43.1467 41.0262C46.8664 36.7386 48.9163 31.2529 48.9164 25.5768C48.9163 20.7769 47.43 16.14 44.7484 12.2385C44.8572 12.1492 44.9742 12.0713 45.0746 11.9709C45.8871 11.1584 46.3441 10.0556 46.3441 8.90645C46.3441 7.75732 45.8872 6.65449 45.0746 5.84197C44.262 5.02942 43.1592 4.57244 42.0101 4.57244C40.861 4.57244 39.7581 5.02934 38.9456 5.84197C38.8458 5.94172 38.7688 6.05815 38.68 6.1662C34.7786 3.48363 30.141 2.00019 25.3396 2.00009C25.2958 1.99996 25.2524 1.99997 25.2088 2.00009H25.1053L25.1004 2.00025ZM25.1316 5.00033H25.2176C25.2558 5.00023 25.2948 5.00022 25.3328 5.00033H25.3407C29.8301 5.00041 34.1553 6.48387 37.7 9.15273C37.7313 9.69731 37.8597 10.2245 38.0848 10.7133L29.0065 19.7916C27.9454 19.1172 26.6908 18.7213 25.3404 18.7213C22.0722 18.7213 19.3434 21.0112 18.6586 24.0729H7.91033C7.65509 23.0288 7.14254 22.0571 6.39859 21.2584C6.12563 20.9654 5.75652 20.8086 5.43764 20.5748C6.45656 16.5226 8.63842 12.8402 11.8128 10.0706C15.5075 6.8469 20.2304 5.05005 25.1311 5.00015L25.1316 5.00033ZM40.208 12.8325C40.696 13.0567 41.2212 13.1861 41.7646 13.2173C44.4328 16.7624 45.9169 21.0883 45.917 25.5766C45.917 30.5264 44.1306 35.3085 40.8896 39.05L40.8818 39.0598C38.1082 42.2565 34.4114 44.4542 30.3406 45.4778C30.1068 45.1589 29.95 44.7898 29.6569 44.5168C28.8578 43.7726 27.8853 43.2602 26.8404 43.0051V32.2548C29.9021 31.5701 32.1921 28.8412 32.1921 25.5731C32.1921 24.2258 31.7972 22.9743 31.1257 21.9148L40.208 12.8325ZM7.91219 27.0729H18.6585C18.8329 27.8529 19.142 28.5803 19.5569 29.235L11.9513 36.8387C10.9688 36.2426 9.83786 35.9129 8.67003 35.9129C8.34627 35.9129 8.04719 36.0401 7.73056 36.0887C6.70324 34.367 5.93592 32.5138 5.44731 30.5691C5.76245 30.3372 6.12836 30.1832 6.39849 29.8933C7.14371 29.0935 7.65742 28.119 7.91223 27.0729L7.91219 27.0729ZM21.6875 31.3444C22.3392 31.7586 23.067 32.0552 23.8399 32.235V43.0043C22.7945 43.2594 21.8206 43.7717 21.0215 44.516C20.7314 44.7863 20.5777 45.152 20.3457 45.4672C18.4016 44.9785 16.5494 44.2112 14.8281 43.184C14.8765 42.868 15.0038 42.5695 15.0039 42.2465C15.0038 41.0758 14.6731 39.9416 14.0742 38.9574L21.6875 31.3444Z" fill="white"/>
</svg>
