<svg width="230" height="51" viewBox="0 0 230 51" fill="none" xmlns="http://www.w3.org/2000/svg">
<path d="M66.2812 13.9062C67.6771 13.9062 68.9479 14.2083 70.0938 14.8125C71.25 15.4167 72.1042 16.2396 72.6562 17.2812C72.75 17.4479 72.7969 17.6302 72.7969 17.8281C72.7969 18.1406 72.6823 18.4062 72.4531 18.625C72.2344 18.8438 71.9688 18.9531 71.6562 18.9531C71.4688 18.9531 71.276 18.8958 71.0781 18.7812C70.8802 18.6562 70.7396 18.5104 70.6562 18.3438C70.2812 17.6354 69.7083 17.099 68.9375 16.7344C68.1771 16.3594 67.2865 16.1719 66.2656 16.1719C65.6198 16.1719 64.9167 16.2604 64.1562 16.4375C63.3958 16.6042 62.7396 16.8854 62.1875 17.2812C61.6458 17.6667 61.375 18.1875 61.375 18.8438C61.375 19.3542 61.5938 19.75 62.0312 20.0312C62.4688 20.3125 63.0104 20.5208 63.6562 20.6562C64.3125 20.7812 64.974 20.8698 65.6406 20.9219C66.3177 20.974 66.8958 21.026 67.375 21.0781C68.3229 21.1719 69.2552 21.3438 70.1719 21.5938C71.0885 21.8438 71.849 22.2552 72.4531 22.8281C73.0573 23.401 73.3594 24.2292 73.3594 25.3125C73.3594 26.4792 73.0156 27.4375 72.3281 28.1875C71.6406 28.9271 70.7604 29.474 69.6875 29.8281C68.6146 30.1719 67.5 30.3438 66.3438 30.3438C64.7188 30.3438 63.2448 30.0312 61.9219 29.4062C60.599 28.7708 59.625 27.8438 59 26.625C58.9167 26.4792 58.875 26.3021 58.875 26.0938C58.875 25.7812 58.9844 25.5156 59.2031 25.2969C59.4219 25.0781 59.6875 24.9688 60 24.9688C60.1979 24.9688 60.3958 25.0312 60.5938 25.1562C60.7917 25.2708 60.9323 25.4167 61.0156 25.5938C61.4635 26.4479 62.151 27.0781 63.0781 27.4844C64.0052 27.8802 65.0938 28.0781 66.3438 28.0781C67.0625 28.0781 67.7865 27.9948 68.5156 27.8281C69.2552 27.651 69.8698 27.3594 70.3594 26.9531C70.8594 26.5469 71.1094 26 71.1094 25.3125C71.1094 24.7708 70.8854 24.3594 70.4375 24.0781C69.9896 23.7865 69.4271 23.5781 68.75 23.4531C68.0729 23.3281 67.3854 23.2448 66.6875 23.2031C66 23.1615 65.4062 23.1094 64.9062 23.0469C64.0208 22.9427 63.1302 22.7656 62.2344 22.5156C61.349 22.2552 60.6094 21.8385 60.0156 21.2656C59.4219 20.6927 59.125 19.8854 59.125 18.8438C59.125 17.9688 59.3385 17.224 59.7656 16.6094C60.2031 15.9844 60.7708 15.474 61.4688 15.0781C62.1771 14.6719 62.9531 14.375 63.7969 14.1875C64.6406 14 65.4688 13.9062 66.2812 13.9062ZM77.2031 13.9688C77.4219 13.9688 77.6302 14.0365 77.8281 14.1719C78.0365 14.3073 78.1823 14.4688 78.2656 14.6562L83.9688 26.9844L88.8438 14.7344C88.9271 14.526 89.0729 14.349 89.2812 14.2031C89.4896 14.0573 89.7083 13.9844 89.9375 13.9844C90.3438 13.9844 90.6615 14.1562 90.8906 14.5C91.1302 14.8333 91.1719 15.2031 91.0156 15.6094L84.125 32.8906C83.8229 33.6406 83.4167 34.4062 82.9062 35.1875C82.3958 35.9688 81.7604 36.625 81 37.1562C80.2396 37.6979 79.3333 37.9688 78.2812 37.9688C77.9583 37.9688 77.6823 37.8542 77.4531 37.625C77.224 37.3958 77.1094 37.1198 77.1094 36.7969C77.1094 36.4948 77.2188 36.224 77.4375 35.9844C77.6562 35.7552 77.9167 35.6354 78.2188 35.625C78.9375 35.5729 79.5365 35.3594 80.0156 34.9844C80.4948 34.6198 80.8958 34.151 81.2188 33.5781C81.5521 33.0156 81.8333 32.4115 82.0625 31.7656C82.3021 31.1302 82.5365 30.526 82.7656 29.9531L76.1406 15.6562C76.0677 15.4896 76.0312 15.3177 76.0312 15.1406C76.0312 14.8177 76.1458 14.5417 76.375 14.3125C76.6042 14.0833 76.8802 13.9688 77.2031 13.9688ZM94.9531 13.9531C95.276 13.9531 95.5365 14.0677 95.7344 14.2969C95.9427 14.526 96.0469 14.8021 96.0469 15.125L96.125 16.9844C96.5 16.526 96.9323 16.0677 97.4219 15.6094C97.9219 15.151 98.4896 14.7708 99.125 14.4688C99.7708 14.1562 100.49 14 101.281 14C102.667 14 103.776 14.3542 104.609 15.0625C105.453 15.7708 106.062 16.7031 106.438 17.8594C106.823 19.0052 107.016 20.2448 107.016 21.5781L107 29.1562C107 29.4792 106.885 29.7552 106.656 29.9844C106.427 30.2135 106.151 30.3281 105.828 30.3281C105.505 30.3281 105.229 30.2135 105 29.9844C104.771 29.7448 104.656 29.4635 104.656 29.1406L104.672 21.5781C104.672 20.651 104.578 19.7917 104.391 19C104.203 18.2083 103.865 17.5677 103.375 17.0781C102.885 16.5885 102.188 16.3438 101.281 16.3438C99.5833 16.3438 98.3021 16.7969 97.4375 17.7031C96.5729 18.6094 96.1406 19.8854 96.1406 21.5312V29.1875C96.1406 29.5104 96.026 29.7865 95.7969 30.0156C95.5677 30.2448 95.2917 30.3594 94.9688 30.3594C94.6458 30.3594 94.3698 30.2396 94.1406 30C93.9115 29.7708 93.7969 29.4948 93.7969 29.1719L93.7812 15.1406C93.7812 14.8073 93.8906 14.526 94.1094 14.2969C94.3385 14.0677 94.6198 13.9531 94.9531 13.9531ZM118.109 13.9844C119.224 13.9844 120.224 14.3073 121.109 14.9531C122.005 15.599 122.786 16.2812 123.453 17L123.594 15.0312C123.594 14.7292 123.677 14.474 123.844 14.2656C124.01 14.0469 124.245 13.9375 124.547 13.9375C124.849 13.9375 125.104 14.0469 125.312 14.2656C125.531 14.474 125.641 14.7292 125.641 15.0312V29.1562C125.641 29.4583 125.531 29.7188 125.312 29.9375C125.104 30.1458 124.849 30.25 124.547 30.25C124.245 30.25 123.984 30.1458 123.766 29.9375C123.557 29.7188 123.453 29.4583 123.453 29.1562V27.375C122.766 28.125 121.948 28.8021 121 29.4062C120.062 30.0104 119.073 30.3125 118.031 30.3125C116.958 30.3125 115.964 30.0938 115.047 29.6562C114.13 29.2083 113.328 28.6042 112.641 27.8438C111.953 27.0833 111.417 26.2188 111.031 25.25C110.656 24.2708 110.469 23.2448 110.469 22.1719C110.469 21.1094 110.656 20.0885 111.031 19.1094C111.417 18.1198 111.953 17.2448 112.641 16.4844C113.339 15.7135 114.151 15.1042 115.078 14.6562C116.005 14.2083 117.016 13.9844 118.109 13.9844ZM123.531 22.0781C123.531 21.0677 123.286 20.1302 122.797 19.2656C122.318 18.3906 121.667 17.6823 120.844 17.1406C120.031 16.599 119.125 16.3281 118.125 16.3281C117.115 16.3281 116.208 16.6042 115.406 17.1562C114.604 17.7083 113.969 18.4323 113.5 19.3281C113.042 20.2135 112.812 21.1615 112.812 22.1719C112.812 23.1719 113.042 24.1146 113.5 25C113.958 25.8854 114.578 26.6042 115.359 27.1562C116.151 27.6979 117.042 27.9688 118.031 27.9688C119.031 27.9688 119.948 27.6927 120.781 27.1406C121.615 26.5781 122.281 25.849 122.781 24.9531C123.281 24.0469 123.531 23.0885 123.531 22.0781ZM136.906 14.0156C138.323 14.0156 139.578 14.3906 140.672 15.1406C141.766 15.8906 142.625 16.875 143.25 18.0938C143.875 19.3125 144.188 20.6302 144.188 22.0469C144.188 23.1094 144.005 24.1354 143.641 25.125C143.276 26.1146 142.76 27 142.094 27.7812C141.427 28.5521 140.641 29.1667 139.734 29.625C138.839 30.0833 137.849 30.3125 136.766 30.3125C135.745 30.3125 134.812 30.0573 133.969 29.5469C133.125 29.0365 132.385 28.4479 131.75 27.7812V34.8438C131.75 35.1667 131.635 35.4427 131.406 35.6719C131.177 35.901 130.901 36.0156 130.578 36.0156C130.255 36.0156 129.979 35.901 129.75 35.6719C129.521 35.4427 129.406 35.1667 129.406 34.8438V15.1719C129.406 14.849 129.521 14.5729 129.75 14.3438C129.979 14.1146 130.255 14 130.578 14C130.901 14 131.161 14.1146 131.359 14.3438C131.568 14.5729 131.672 14.849 131.672 15.1719L131.75 16.6719C132.344 16.0677 133.078 15.474 133.953 14.8906C134.828 14.3073 135.812 14.0156 136.906 14.0156ZM136.859 16.3594C135.807 16.3594 134.896 16.6458 134.125 17.2188C133.365 17.7917 132.781 18.5312 132.375 19.4375C131.969 20.3333 131.766 21.276 131.766 22.2656C131.766 23.2344 131.964 24.1562 132.359 25.0312C132.766 25.8958 133.344 26.6042 134.094 27.1562C134.854 27.6979 135.755 27.9688 136.797 27.9688C137.807 27.9688 138.688 27.6823 139.438 27.1094C140.188 26.526 140.771 25.7812 141.188 24.875C141.604 23.9583 141.812 23 141.812 22C141.812 21.0104 141.604 20.0885 141.188 19.2344C140.781 18.3698 140.203 17.6771 139.453 17.1562C138.714 16.625 137.849 16.3594 136.859 16.3594ZM155.031 13.9062C156.427 13.9062 157.698 14.2083 158.844 14.8125C160 15.4167 160.854 16.2396 161.406 17.2812C161.5 17.4479 161.547 17.6302 161.547 17.8281C161.547 18.1406 161.432 18.4062 161.203 18.625C160.984 18.8438 160.719 18.9531 160.406 18.9531C160.219 18.9531 160.026 18.8958 159.828 18.7812C159.63 18.6562 159.49 18.5104 159.406 18.3438C159.031 17.6354 158.458 17.099 157.688 16.7344C156.927 16.3594 156.036 16.1719 155.016 16.1719C154.37 16.1719 153.667 16.2604 152.906 16.4375C152.146 16.6042 151.49 16.8854 150.938 17.2812C150.396 17.6667 150.125 18.1875 150.125 18.8438C150.125 19.3542 150.344 19.75 150.781 20.0312C151.219 20.3125 151.76 20.5208 152.406 20.6562C153.062 20.7812 153.724 20.8698 154.391 20.9219C155.068 20.974 155.646 21.026 156.125 21.0781C157.073 21.1719 158.005 21.3438 158.922 21.5938C159.839 21.8438 160.599 22.2552 161.203 22.8281C161.807 23.401 162.109 24.2292 162.109 25.3125C162.109 26.4792 161.766 27.4375 161.078 28.1875C160.391 28.9271 159.51 29.474 158.438 29.8281C157.365 30.1719 156.25 30.3438 155.094 30.3438C153.469 30.3438 151.995 30.0312 150.672 29.4062C149.349 28.7708 148.375 27.8438 147.75 26.625C147.667 26.4792 147.625 26.3021 147.625 26.0938C147.625 25.7812 147.734 25.5156 147.953 25.2969C148.172 25.0781 148.438 24.9688 148.75 24.9688C148.948 24.9688 149.146 25.0312 149.344 25.1562C149.542 25.2708 149.682 25.4167 149.766 25.5938C150.214 26.4479 150.901 27.0781 151.828 27.4844C152.755 27.8802 153.844 28.0781 155.094 28.0781C155.812 28.0781 156.536 27.9948 157.266 27.8281C158.005 27.651 158.62 27.3594 159.109 26.9531C159.609 26.5469 159.859 26 159.859 25.3125C159.859 24.7708 159.635 24.3594 159.188 24.0781C158.74 23.7865 158.177 23.5781 157.5 23.4531C156.823 23.3281 156.135 23.2448 155.438 23.2031C154.75 23.1615 154.156 23.1094 153.656 23.0469C152.771 22.9427 151.88 22.7656 150.984 22.5156C150.099 22.2552 149.359 21.8385 148.766 21.2656C148.172 20.6927 147.875 19.8854 147.875 18.8438C147.875 17.9688 148.089 17.224 148.516 16.6094C148.953 15.9844 149.521 15.474 150.219 15.0781C150.927 14.6719 151.703 14.375 152.547 14.1875C153.391 14 154.219 13.9062 155.031 13.9062ZM173.656 30.3125C172.146 30.3125 170.776 29.9375 169.547 29.1875C168.328 28.4375 167.359 27.4375 166.641 26.1875C165.922 24.9271 165.562 23.5469 165.562 22.0469C165.562 20.6198 165.901 19.3021 166.578 18.0938C167.266 16.875 168.193 15.8958 169.359 15.1562C170.526 14.4167 171.828 14.0469 173.266 14.0469C174.589 14.0469 175.802 14.375 176.906 15.0312C178.021 15.6875 178.911 16.5729 179.578 17.6875C180.255 18.7917 180.594 20.0208 180.594 21.375C180.594 21.8542 180.505 22.2656 180.328 22.6094C180.161 22.9531 179.849 23.125 179.391 23.125H168.016C168.182 23.9896 168.521 24.7917 169.031 25.5312C169.552 26.2604 170.203 26.849 170.984 27.2969C171.776 27.7448 172.656 27.9688 173.625 27.9688C174.448 27.9688 175.255 27.7865 176.047 27.4219C176.839 27.0573 177.49 26.5573 178 25.9219C178.229 25.6198 178.536 25.4688 178.922 25.4688C179.245 25.4688 179.521 25.5833 179.75 25.8125C179.979 26.0417 180.094 26.3177 180.094 26.6406C180.094 26.9219 180 27.1771 179.812 27.4062C179.062 28.3229 178.141 29.0365 177.047 29.5469C175.964 30.0573 174.833 30.3125 173.656 30.3125ZM178.203 20.8125C178.109 20 177.833 19.2604 177.375 18.5938C176.917 17.9167 176.333 17.3802 175.625 16.9844C174.917 16.5885 174.135 16.3906 173.281 16.3906C172.396 16.3906 171.589 16.5938 170.859 17C170.13 17.4062 169.521 17.9427 169.031 18.6094C168.552 19.276 168.224 20.0104 168.047 20.8125H178.203ZM184.812 20.5781H196.719C197.021 20.5781 197.276 20.6875 197.484 20.9062C197.703 21.1146 197.812 21.3698 197.812 21.6719C197.812 21.974 197.703 22.2344 197.484 22.4531C197.276 22.6615 197.021 22.7656 196.719 22.7656H184.812C184.51 22.7656 184.25 22.6615 184.031 22.4531C183.823 22.2344 183.719 21.974 183.719 21.6719C183.719 21.3698 183.823 21.1146 184.031 20.9062C184.25 20.6875 184.51 20.5781 184.812 20.5781ZM208.578 13.9844C209.693 13.9844 210.693 14.3073 211.578 14.9531C212.474 15.599 213.255 16.2812 213.922 17L214.062 15.0312C214.062 14.7292 214.146 14.474 214.312 14.2656C214.479 14.0469 214.714 13.9375 215.016 13.9375C215.318 13.9375 215.573 14.0469 215.781 14.2656C216 14.474 216.109 14.7292 216.109 15.0312V29.1562C216.109 29.4583 216 29.7188 215.781 29.9375C215.573 30.1458 215.318 30.25 215.016 30.25C214.714 30.25 214.453 30.1458 214.234 29.9375C214.026 29.7188 213.922 29.4583 213.922 29.1562V27.375C213.234 28.125 212.417 28.8021 211.469 29.4062C210.531 30.0104 209.542 30.3125 208.5 30.3125C207.427 30.3125 206.432 30.0938 205.516 29.6562C204.599 29.2083 203.797 28.6042 203.109 27.8438C202.422 27.0833 201.885 26.2188 201.5 25.25C201.125 24.2708 200.938 23.2448 200.938 22.1719C200.938 21.1094 201.125 20.0885 201.5 19.1094C201.885 18.1198 202.422 17.2448 203.109 16.4844C203.807 15.7135 204.62 15.1042 205.547 14.6562C206.474 14.2083 207.484 13.9844 208.578 13.9844ZM214 22.0781C214 21.0677 213.755 20.1302 213.266 19.2656C212.786 18.3906 212.135 17.6823 211.312 17.1406C210.5 16.599 209.594 16.3281 208.594 16.3281C207.583 16.3281 206.677 16.6042 205.875 17.1562C205.073 17.7083 204.438 18.4323 203.969 19.3281C203.51 20.2135 203.281 21.1615 203.281 22.1719C203.281 23.1719 203.51 24.1146 203.969 25C204.427 25.8854 205.047 26.6042 205.828 27.1562C206.62 27.6979 207.51 27.9688 208.5 27.9688C209.5 27.9688 210.417 27.6927 211.25 27.1406C212.083 26.5781 212.75 25.849 213.25 24.9531C213.75 24.0469 214 23.0885 214 22.0781ZM221.25 11.6094C220.802 11.6094 220.406 11.4479 220.062 11.125C219.729 10.8021 219.562 10.4115 219.562 9.95312C219.562 9.49479 219.729 9.10417 220.062 8.78125C220.406 8.45833 220.802 8.29688 221.25 8.29688C221.708 8.29688 222.104 8.45833 222.438 8.78125C222.771 9.10417 222.938 9.49479 222.938 9.95312C222.938 10.4115 222.771 10.8021 222.438 11.125C222.104 11.4479 221.708 11.6094 221.25 11.6094ZM220.109 15C220.109 14.7292 220.234 14.4948 220.484 14.2969C220.734 14.0885 220.969 13.9844 221.188 13.9844C221.552 13.9844 221.854 14.0938 222.094 14.3125C222.333 14.5312 222.453 14.8177 222.453 15.1719L222.484 29.1875C222.484 29.5104 222.37 29.7865 222.141 30.0156C221.911 30.2448 221.635 30.3594 221.312 30.3594C220.99 30.3594 220.714 30.2396 220.484 30C220.255 29.7708 220.141 29.4948 220.141 29.1719L220.109 15Z" fill="white"/>
<path d="M25.1004 3.00025C19.4855 3.05738 14.0731 5.11761 9.83999 8.8109C5.93739 12.2157 3.27482 16.8013 2.2422 21.8502L2 23.0358L3.10743 23.524C3.51826 23.7049 3.89145 23.9687 4.20316 24.3034C4.77833 24.9208 5.0977 25.7309 5.0977 26.5749C5.09749 27.4188 4.77819 28.2312 4.20316 28.8484C3.89154 29.1828 3.51804 29.445 3.10743 29.6257L2 30.114L2.2422 31.2995C2.84529 34.2486 4.00734 37.0555 5.66608 39.5672L6.33406 40.5771L7.46099 40.1396C7.84315 39.9911 8.25346 39.913 8.67002 39.913C9.55491 39.913 10.4018 40.2639 11.0275 40.8896C11.6531 41.5152 12.004 42.3622 12.0041 43.247C12.0041 43.6637 11.9258 44.0721 11.7775 44.4541L11.34 45.583L12.3498 46.249C14.8613 47.9075 17.6669 49.0696 20.6156 49.6729L21.8011 49.9151L22.2875 48.8077C22.4686 48.3966 22.7323 48.0235 23.0668 47.7119C23.6842 47.1369 24.4964 46.8174 25.3402 46.8174C26.1841 46.8174 26.9962 47.1368 27.6137 47.7119C27.9483 48.0236 28.2102 48.3969 28.3911 48.8077L28.8794 49.9151L30.0649 49.6729C34.3637 48.7936 38.2776 46.6739 41.4612 43.6728L41.5432 43.8759L43.1467 42.0262C46.8664 37.7386 48.9163 32.2529 48.9164 26.5768C48.9163 21.7769 47.43 17.14 44.7484 13.2385C44.8572 13.1492 44.9742 13.0713 45.0746 12.9709C45.8871 12.1584 46.3441 11.0556 46.3441 9.90645C46.3441 8.75732 45.8872 7.65449 45.0746 6.84197C44.262 6.02942 43.1592 5.57244 42.0101 5.57244C40.861 5.57244 39.7581 6.02934 38.9456 6.84197C38.8458 6.94172 38.7688 7.05815 38.68 7.1662C34.7786 4.48363 30.141 3.00019 25.3396 3.00009C25.2958 2.99996 25.2524 2.99997 25.2088 3.00009H25.1053L25.1004 3.00025ZM25.1316 6.00033H25.2176C25.2558 6.00023 25.2948 6.00022 25.3328 6.00033H25.3407C29.8301 6.00041 34.1553 7.48387 37.7 10.1527C37.7313 10.6973 37.8597 11.2245 38.0848 11.7133L29.0065 20.7916C27.9454 20.1172 26.6908 19.7213 25.3404 19.7213C22.0722 19.7213 19.3434 22.0112 18.6586 25.0729H7.91033C7.65509 24.0288 7.14254 23.0571 6.39859 22.2584C6.12563 21.9654 5.75652 21.8086 5.43764 21.5748C6.45656 17.5226 8.63842 13.8402 11.8128 11.0706C15.5075 7.8469 20.2304 6.05005 25.1311 6.00015L25.1316 6.00033ZM40.208 13.8325C40.696 14.0567 41.2212 14.1861 41.7646 14.2173C44.4328 17.7624 45.9169 22.0883 45.917 26.5766C45.917 31.5264 44.1306 36.3085 40.8896 40.05L40.8818 40.0598C38.1082 43.2565 34.4114 45.4542 30.3406 46.4778C30.1068 46.1589 29.95 45.7898 29.6569 45.5168C28.8578 44.7726 27.8853 44.2602 26.8404 44.0051V33.2548C29.9021 32.5701 32.1921 29.8412 32.1921 26.5731C32.1921 25.2258 31.7972 23.9743 31.1257 22.9148L40.208 13.8325ZM7.91219 28.0729H18.6585C18.8329 28.8529 19.142 29.5803 19.5569 30.235L11.9513 37.8387C10.9688 37.2426 9.83786 36.9129 8.67003 36.9129C8.34627 36.9129 8.04719 37.0401 7.73056 37.0887C6.70324 35.367 5.93592 33.5138 5.44731 31.5691C5.76245 31.3372 6.12836 31.1832 6.39849 30.8933C7.14371 30.0935 7.65742 29.119 7.91223 28.0729L7.91219 28.0729ZM21.6875 32.3444C22.3392 32.7586 23.067 33.0552 23.8399 33.235V44.0043C22.7945 44.2594 21.8206 44.7717 21.0215 45.516C20.7314 45.7863 20.5777 46.152 20.3457 46.4672C18.4016 45.9785 16.5494 45.2112 14.8281 44.184C14.8765 43.868 15.0038 43.5695 15.0039 43.2465C15.0038 42.0758 14.6731 40.9416 14.0742 39.9574L21.6875 32.3444Z" fill="white"/>
</svg>
